<svg viewBox="0 0 64 64" fill="#4a4a4a" xmlns="http://www.w3.org/2000/svg">
	<path d="M6 6C2.625 6 0 8.75 0 12C0 15.375 2.625 18 6 18C9.25 18 12 15.375 12 12C12 8.75 9.25 6 6 6ZM6 26C2.625 26 0 28.75 0 32C0 35.375 2.625 38 6 38C9.25 38 12 35.375 12 32C12 28.75 9.25 26 6 26ZM6 46C2.625 46 0 48.75 0 52C0 55.375 2.625 58 6 58C9.25 58 12 55.375 12 52C12 48.75 9.25 46 6 46ZM62 48H22C20.875 48 20 49 20 50V54C20 55.125 20.875 56 22 56H62C63 56 64 55.125 64 54V50C64 49 63 48 62 48ZM62 8H22C20.875 8 20 9 20 10V14C20 15.125 20.875 16 22 16H62C63 16 64 15.125 64 14V10C64 9 63 8 62 8ZM62 28H22C20.875 28 20 29 20 30V34C20 35.125 20.875 36 22 36H62C63 36 64 35.125 64 34V30C64 29 63 28 62 28Z"/>
</svg>
