<svg viewBox="0 0 64 64" fill="#4a4a4a" xmlns="http://www.w3.org/2000/svg">
	<path d="M22.5 36C23.25 36 24 35.375 24 34.5V29.5C24 28.75 23.25 28 22.5 28H17.5C16.625 28 16 28.75 16 29.5V34.5C16 35.375 16.625 36 17.5 36H22.5ZM36 34.5V29.5C36 28.75 35.25 28 34.5 28H29.5C28.625 28 28 28.75 28 29.5V34.5C28 35.375 28.625 36 29.5 36H34.5C35.25 36 36 35.375 36 34.5ZM48 34.5V29.5C48 28.75 47.25 28 46.5 28H41.5C40.625 28 40 28.75 40 29.5V34.5C40 35.375 40.625 36 41.5 36H46.5C47.25 36 48 35.375 48 34.5ZM36 46.5V41.5C36 40.75 35.25 40 34.5 40H29.5C28.625 40 28 40.75 28 41.5V46.5C28 47.375 28.625 48 29.5 48H34.5C35.25 48 36 47.375 36 46.5ZM24 46.5V41.5C24 40.75 23.25 40 22.5 40H17.5C16.625 40 16 40.75 16 41.5V46.5C16 47.375 16.625 48 17.5 48H22.5C23.25 48 24 47.375 24 46.5ZM48 46.5V41.5C48 40.75 47.25 40 46.5 40H41.5C40.625 40 40 40.75 40 41.5V46.5C40 47.375 40.625 48 41.5 48H46.5C47.25 48 48 47.375 48 46.5ZM60 14C60 10.75 57.25 8 54 8H48V1.5C48 0.75 47.25 0 46.5 0H41.5C40.625 0 40 0.75 40 1.5V8H24V1.5C24 0.75 23.25 0 22.5 0H17.5C16.625 0 16 0.75 16 1.5V8H10C6.625 8 4 10.75 4 14V58C4 61.375 6.625 64 10 64H54C57.25 64 60 61.375 60 58V14ZM54 57.25C54 57.75 53.625 58 53.25 58H10.75C10.25 58 10 57.75 10 57.25V20H54V57.25Z"/>
</svg>
