<svg xmlns="http://www.w3.org/2000/svg" width="18.982" height="17.002" viewBox="0 0 18.982 17.002">
  <path id="HEART" d="M16538.92,11932.739c-.723-.636-1.424-1.233-2.043-1.761h0a38.556,38.556,0,0,1-4.465-4.19,6.7,6.7,0,0,1-1.781-4.386,5.63,5.63,0,0,1,1.424-3.838,4.837,4.837,0,0,1,3.6-1.565,4.529,4.529,0,0,1,2.828.976,5.884,5.884,0,0,1,1.143,1.192,5.78,5.78,0,0,1,1.143-1.192,4.511,4.511,0,0,1,2.824-.976,4.831,4.831,0,0,1,3.6,1.565,5.607,5.607,0,0,1,1.43,3.838,6.7,6.7,0,0,1-1.781,4.386,38.717,38.717,0,0,1-4.465,4.19c-.619.527-1.32,1.125-2.053,1.761a1.061,1.061,0,0,1-.693.262A1.076,1.076,0,0,1,16538.92,11932.739Z" transform="translate(-16530.127 -11916.499)" stroke-width="1"/>
</svg>