<svg xmlns="http://www.w3.org/2000/svg" xmlns:xlink="http://www.w3.org/1999/xlink" width="15.692" height="18.902" viewBox="0 0 15.692 18.902">
  <defs>
    <clipPath id="clip-path">
      <rect width="15.692" height="18.902" fill="none"/>
    </clipPath>
  </defs>
  <g id="User-Icon" clip-path="url(#clip-path)">
    <g id="Subtraction_1" data-name="Subtraction 1" transform="translate(0 7.418)" fill="none">
      <path d="M7.846,11.484A15.037,15.037,0,0,1,2.452,10.6C.848,9.958,0,9.042,0,7.95A9,9,0,0,1,1.4,3.083,7.979,7.979,0,0,1,5,0a4.691,4.691,0,0,0,2.85.971A4.692,4.692,0,0,0,10.7,0a7.978,7.978,0,0,1,3.595,3.083,9,9,0,0,1,1.4,4.867c0,1.092-.848,2.008-2.452,2.65A15.037,15.037,0,0,1,7.846,11.484Z" stroke="none"/>
      <path d="M 7.846200466156006 9.483721733093262 C 9.626960754394531 9.483721733093262 11.32218074798584 9.21395206451416 12.49719047546387 8.743572235107422 C 13.40617084503174 8.379701614379883 13.67448043823242 8.024722099304199 13.69211006164551 7.956761837005615 C 13.69211006164551 7.956741809844971 13.69240093231201 7.954821586608887 13.69240093231201 7.95018196105957 C 13.69240093231201 6.58139181137085 13.3169002532959 5.271241664886475 12.60649013519287 4.161391735076904 C 12.11445140838623 3.39268970489502 11.48910140991211 2.759176731109619 10.7689733505249 2.294065475463867 C 9.859256744384766 2.739346742630005 8.86786937713623 2.970701932907104 7.846200466156006 2.970701932907104 C 6.824518203735352 2.970701932907104 5.833135604858398 2.739353656768799 4.923414707183838 2.294065713882446 C 4.203282356262207 2.759180307388306 3.57793927192688 3.392687082290649 3.085900545120239 4.161381721496582 C 2.375500440597534 5.271241664886475 2.000000476837158 6.581381797790527 2.000000476837158 7.95018196105957 C 2.000000476837158 7.954424858093262 2.000242948532104 7.956393241882324 2.000223159790039 7.956400871276855 C 2.018051385879517 8.024893760681152 2.286452293395996 8.379790306091309 3.195210456848145 8.743581771850586 C 4.37022066116333 9.21395206451416 6.065440654754639 9.483721733093262 7.846200466156006 9.483721733093262 M 7.846200466156006 11.48372173309326 C 5.790690422058105 11.48372173309326 3.874970436096191 11.1699914932251 2.451930522918701 10.60033226013184 C 0.8478704690933228 9.958211898803711 4.661559955820849e-07 9.041801452636719 4.661559955820849e-07 7.95018196105957 C 4.661559955820849e-07 6.198482036590576 0.4846104681491852 4.515501976013184 1.401430487632751 3.083171844482422 C 2.297450542449951 1.683341860771179 3.540490388870239 0.6171917915344238 4.996160507202148 1.820220973058895e-06 C 5.834920406341553 0.6350818276405334 6.820130348205566 0.9707018136978149 7.846200466156006 0.9707018136978149 C 8.872000694274902 0.9707018136978149 9.85752010345459 0.6350418329238892 10.6962308883667 1.182022060675081e-05 C 12.15237998962402 0.6174018383026123 13.39509010314941 1.683581829071045 14.29096031188965 3.083171844482422 C 15.20779037475586 4.515511989593506 15.69240093231201 6.198492050170898 15.69240093231201 7.95018196105957 C 15.69240093231201 9.041801452636719 14.84453010559082 9.958211898803711 13.24047088623047 10.60033226013184 C 11.81743049621582 11.1699914932251 9.901710510253906 11.48372173309326 7.846200466156006 11.48372173309326 Z" stroke="none" fill="currentColor"/>
    </g>
    <g id="Ellipse_18" data-name="Ellipse 18" transform="translate(2.965)" fill="none" stroke="currentColor" stroke-width="2">
      <ellipse cx="4.993" cy="4.993" rx="4.993" ry="4.993" stroke="none"/>
      <ellipse cx="4.993" cy="4.993" rx="3.993" ry="3.993" fill="none"/>
    </g>
  </g>
</svg>
