<svg xmlns="http://www.w3.org/2000/svg" width="111" height="81" viewBox="0 0 111 81"><defs><clipPath id="5832a"><path d="M36.289 42.654h39.718v-.536H36.29z"/></clipPath><clipPath id="5832b"><path d="M74.038 61.028h1.364v.347h-4.553v-.343h1.452v-9.637l-.024-.008c-.149.383-.298.767-.445 1.15a5161.193 5161.193 0 0 1-3.251 8.437.31.31 0 0 1-.174.166c-.13.04-.135-.09-.167-.17L64.58 51.8a.701.701 0 0 0-.125-.224v.17c0 2.777 0 5.553.003 8.33 0 .152.021.305.056.452.082.345.302.495.709.5.27.004.54 0 .82 0v.346h-3.33v-.345c.18 0 .363.01.545-.002.541-.034.75-.198.753-.74.02-3.215.013-6.43.014-9.646 0-.026-.006-.051-.012-.097h-1.3v-.36h.209c.903 0 1.808.005 2.71-.004.166-.001.24.05.3.203a3255.48 3255.48 0 0 0 3.098 7.86c.022.057.05.114.09.21.19-.492.364-.945.54-1.396.864-2.231 1.729-4.462 2.589-6.694.052-.137.12-.184.27-.183.955.009 1.913.004 2.884.004v.35h-1.364zm8.459.357c-.698.006-1.394.001-2.114.001v-.352h1.17v-10.49h-1.165v-.36h.203c1.575 0 3.15-.017 4.725.007.915.014 1.777.254 2.505.844.687.558.933 1.277.808 2.152-.116.816-.478 1.466-1.23 1.822-.398.188-.848.268-1.274.396-.053.017-.108.027-.16.052.536.1 1.056.24 1.535.496.843.451 1.36 1.124 1.442 2.108.076.902-.152 1.69-.795 2.335-.563.564-1.267.895-2.047.938-1.198.064-2.402.041-3.603.051zm.82-.394c.582 0 1.152.04 1.718-.01.795-.068 1.387-.484 1.72-1.223.275-.616.349-1.263.273-1.934-.081-.716-.378-1.302-.986-1.706-.832-.553-1.774-.521-2.725-.508zm0-5.703c.695-.043 1.378-.041 2.047-.138.634-.092 1.13-.449 1.367-1.075.093-.242.138-.506.178-.767.14-.934-.174-1.691-.937-2.246-.8-.583-1.724-.541-2.655-.512zm-34.21-4.748h-1.491v-.34h4.87v.335H50.83c-.004.08-.01.137-.01.195 0 2.664-.013 5.33.006 7.994.007.943.346 1.746 1.217 2.236.356.2.746.294 1.153.31.719.024 1.425-.04 2.093-.336.904-.402 1.403-1.12 1.585-2.068.064-.33.083-.671.084-1.006.007-2.154.004-4.307 0-6.459 0-.13-.02-.264-.052-.39-.077-.297-.317-.464-.654-.469-.352-.003-.702 0-1.07 0v-.348h3.752v.346h-.8c-.505.001-.733.208-.735.72-.01 2.26.002 4.519-.017 6.778a4.696 4.696 0 0 1-.17 1.248c-.357 1.242-1.247 1.926-2.467 2.215-.795.19-1.604.145-2.41.09-.638-.045-1.256-.164-1.83-.455-.75-.384-1.174-1.014-1.314-1.83a6.183 6.183 0 0 1-.08-1.026c-.007-2.49-.004-4.982-.004-7.475zm-35.135-.345v.334H12.78l2.8 6.057.562-1.157c.615-1.265 1.232-2.53 1.841-3.799a2.73 2.73 0 0 0 .189-.556c.083-.354-.054-.52-.424-.53-.278-.008-.556-.002-.845-.002v-.346h3.273v.345c-.17 0-.334.007-.497 0-.408-.018-.711.161-.894.512-.402.769-.79 1.545-1.179 2.322a542.892 542.892 0 0 0-1.774 3.578c-.06.125-.093.276-.094.415-.009 1.142-.006 2.285-.006 3.428v.229h1.702v.35h-5.067v-.34h1.7v-.238c0-1.016-.005-2.033.005-3.049a1.465 1.465 0 0 0-.155-.683c-1.052-2.169-2.097-4.342-3.148-6.524H9.5v-.346zm87.975 10.837c.277-.01.555-.003.847-.003v.344h-4.116v-.343h1.201c-.13-.38-.252-.733-.372-1.088-.225-.662-.451-1.321-.67-1.985-.039-.12-.091-.163-.22-.163-1.077.005-2.154.001-3.23.008-.066 0-.173.05-.19.102-.281.824-.557 1.65-.815 2.482-.042.14-.053.354.025.45.09.113.29.163.449.186.208.03.422.007.646.007v.348h-2.724v-.348c.103 0 .2-.005.298.001.372.022.626-.147.759-.487.142-.36.276-.724.398-1.09 1.05-3.116 2.098-6.23 3.143-9.348.041-.124.08-.205.237-.198.147.008.254.007.316.183.678 1.954 1.364 3.905 2.05 5.856.575 1.642 1.153 3.282 1.724 4.925.047.136.116.165.244.16zm-6.605-3.602h3.322l-1.681-4.952c-.56 1.685-1.098 3.31-1.641 4.952zm-65.007 2.232l.485 1.37h1.008v.343h-4.116v-.334h1.224l-.58-1.705c-.155-.456-.312-.909-.459-1.367-.04-.122-.09-.177-.23-.176a321.18 321.18 0 0 1-3.25.002c-.098 0-.158.019-.19.123-.253.786-.511 1.57-.766 2.357a1.872 1.872 0 0 0-.068.267c-.05.301.115.469.491.484.225.01.45.002.687.002v.343H21.82v-.342c.11 0 .214-.005.318.001.354.02.605-.135.734-.458.158-.398.303-.802.44-1.209 1.04-3.09 2.08-6.179 3.113-9.27.05-.147.122-.192.27-.185.134.008.227.008.284.169 1.114 3.197 2.236 6.39 3.357 9.585zm-4.3-7.184l-1.642 4.953h3.324l-1.682-4.953zM36.78 50.54h-1.245v-.346h4.258v.34h-1.247v10.482c.06.005.117.011.175.011.612.001 1.225.03 1.833-.009.563-.035 1.13-.101 1.679-.225.839-.189 1.27-.793 1.406-1.608.083-.5.11-1.006.167-1.53h.304v3.717h-8.575v-.34h1.245z"/></clipPath><clipPath id="5832c"><path d="M104.54 80.415c-.696.006-1.393.002-2.113.002v-.353h1.17V69.586h-1.165v-.34h.204c1.575 0 3.15-.018 4.723.006.916.014 1.777.254 2.505.845.688.557.933 1.246.81 2.118-.116.819-.479 1.466-1.231 1.823-.4.187-.847.27-1.274.397-.053.016-.109.025-.161.052.538.1 1.057.239 1.535.496.845.451 1.36 1.123 1.443 2.107.076.903-.151 1.691-.795 2.335-.563.563-1.266.896-2.047.938-1.199.066-2.401.043-3.604.052zm.82-.395c.582 0 1.154.04 1.718-.009.795-.069 1.388-.486 1.72-1.224.277-.615.349-1.263.273-1.933-.08-.715-.378-1.304-.985-1.707-.832-.553-1.774-.52-2.725-.508zm0-5.703c.695-.043 1.378-.041 2.049-.138.633-.092 1.13-.45 1.367-1.074.092-.243.138-.508.177-.767.141-.936-.173-1.679-.937-2.235-.8-.582-1.723-.54-2.655-.512z"/></clipPath><clipPath id="5832d"><path d="M9.277 80.8h-.269l-.01-.03-1.758-5.323-1.925 5.352h-.267l-.011-.028L1.134 69.58H0v-.341h3.75v.34h-.82l2.954 8.595 1.152-3.227-1.862-5.367h-.96v-.341h6.512v.34h-.47c-.62 0-.975.131-1.205.838l-.927 2.543 1.722 5.212 2.672-7.517c.16-.462.187-.562.187-.678 0-.263-.22-.397-.65-.397h-.503v-.341h2.898v.34h-.186c-.817 0-1.088.347-1.332 1.03zm-2.37-11.22l.997 2.927.7-1.945c.092-.25.14-.463.14-.632 0-.121 0-.35-.588-.35z"/></clipPath><clipPath id="5832e"><path d="M22.162 80.42h-4.57v-.34h1.436v-10.5h-1.436v-.34h4.57v.34h-1.437v10.5h1.437z"/></clipPath><clipPath id="5832f"><path d="M35.494 80.516h-.272l-.013-.019-7.512-10.363v9.09c0 .732.233.857.934.857h.676v.34h-3.465v-.34h.58c.701 0 .934-.125.934-.856V69.58h-1.514v-.34h3.38l.014.018 5.917 8.154v-7.024c0-.616-.107-.808-.776-.808h-.787v-.34h3.419v.34h-.739c-.669 0-.776.192-.776.808z"/></clipPath><clipPath id="5832g"><path d="M49.792 80.42h-9.289v-.34h1.389v-10.5h-1.389v-.34H49l.196 2.77h-.345v-.044c0-1.606-.925-2.386-2.828-2.386H43.59v4.977h1.139c1.62 0 1.754-.977 1.754-1.977v-.044h.342v4.287h-.342v-.045c0-1.136-.123-1.88-1.77-1.88H43.59v5.182h2.118c2.544 0 3.743-.29 3.743-2.939v-.043h.34z"/></clipPath><clipPath id="5832h"><path d="M66.437 80.673c-1.297 0-2.581-.621-3.527-1.706-.97-1.112-1.504-2.585-1.504-4.146 0-1.562.534-3.034 1.504-4.146.946-1.084 2.23-1.707 3.527-1.707 1.019 0 1.681.46 2.165.794.29.202.517.358.723.358.364 0 .54-.207.54-.634v-.044h.34v3.466h-.34v-.044c0-1.893-1.602-3.554-3.428-3.554-1.435 0-3.144.956-3.144 5.511s1.71 5.511 3.144 5.511c1.656 0 3.428-1.56 3.428-3.884v-.045h.34v3.829h-.34v-.044c0-.31-.153-.746-.493-.746-.15 0-.36.15-.624.34-.494.355-1.24.891-2.311.891"/></clipPath><clipPath id="5832i"><path d="M89.118 69.851c0 2.49-.003 4.984.004 7.475 0 .343.021.69.08 1.026.14.816.564 1.446 1.314 1.828.574.293 1.191.412 1.83.455.807.055 1.614.1 2.41-.088 1.22-.29 2.11-.974 2.466-2.216.115-.4.169-.83.172-1.247.017-2.26.008-4.519.015-6.778.002-.512.23-.719.737-.72h.8v-.347h-3.752v.348c.366 0 .718-.003 1.069.001.338.004.578.172.654.468.032.126.052.26.052.39.004 2.153.007 4.306 0 6.459-.001.336-.02.677-.084 1.005-.181.95-.682 1.667-1.585 2.069-.667.298-1.374.361-2.093.336a2.51 2.51 0 0 1-1.153-.31c-.871-.49-1.21-1.293-1.217-2.236-.019-2.665-.007-5.33-.006-7.993 0-.058.006-.116.01-.195h1.654v-.334h-4.87v.34h1.493z"/></clipPath><clipPath id="5832j"><path d="M76.79 80.08h-1.245v.338h8.575v-3.716h-.305c-.054.523-.083 1.03-.166 1.53-.137.815-.566 1.42-1.406 1.607-.55.124-1.117.191-1.678.226-.61.038-1.223.009-1.834.009-.057 0-.116-.008-.175-.01V69.581h1.246v-.342h-4.257v.346h1.244z"/></clipPath><clipPath id="5832k"><path d="M61.068.005v.82c.688 0 1.35-.013 2.01.004.886.024 1.21.42 1.01 1.266a6.466 6.466 0 0 1-.446 1.325 3683.557 3683.557 0 0 1-5.73 11.81L51.24.795h2.842V0H43.428v.825h3.02c2.458 5.097 4.899 10.171 7.355 15.237a3.53 3.53 0 0 1 .355 1.6c-.004.487-.012 2.994-.012 2.994-.004.385-.012 1.026.587 1.306.302.14 1.383.627 2.33 1.043-.282.124-1.824.776-2.217.95-.45.2-.707.532-.707.911 0 .17.062.595.638.852.463.205 2.135.943 2.365 1.046-.21.09-1.977.834-2.251.955-.595.264-.662.701-.663.878-.001.181.064.632.687.917.394.18 1.606.719 2.218.987-.534.254-1.745.843-2.157 1.046-.496.244-.543.628-.54.782.005.22.109.652.805.942.942.392 2.218.89 2.218.89-.624.412-1.113.665-1.355.803-.243.138-.456.458-.456.458s.352.044.59-.033c.237-.079.664-.229 1.432-.557.77-.329.74-1.248.024-1.628-.422-.226-1.794-.865-1.794-.865.59-.286 1.5-.728 1.835-.885.448-.211.722-.601.715-1.019-.005-.366-.228-.68-.593-.837-.322-.14-1.578-.695-2.218-.984.309-.132 1.884-.795 2.094-.886.454-.195.727-.556.73-.967.003-.389-.247-.741-.65-.923-.22-.099-1.86-.823-2.228-.985.31-.136 1.785-.758 2.104-.901.547-.246.823-.57.82-.965 0-.26-.134-.614-.732-.89-1.074-.495-1.42-.658-2.153-1.002.436-.185 1.54-.654 2.021-.862.607-.262.8-.555.8-1.097.003-.698.005-1.689.01-2.387.003-.315.076-.656.209-.944 1.348-2.748 2.71-5.489 4.08-8.228.925-1.85 1.85-3.702 2.808-5.535.437-.833 1.158-1.26 2.129-1.218.39.016.78.002 1.187.002v-.82z"/></clipPath></defs><g><g><g><g><path d="M36.289 42.654h39.718v-.536H36.29z"/></g><g clip-path="url(#5832a)"><path d="M30.813 36.642h50.67V48.13h-50.67z"/></g></g><g><g><path d="M74.038 61.028h1.364v.347h-4.553v-.343h1.452v-9.637l-.024-.008c-.149.383-.298.767-.445 1.15a5161.193 5161.193 0 0 1-3.251 8.437.31.31 0 0 1-.174.166c-.13.04-.135-.09-.167-.17L64.58 51.8a.701.701 0 0 0-.125-.224v.17c0 2.777 0 5.553.003 8.33 0 .152.021.305.056.452.082.345.302.495.709.5.27.004.54 0 .82 0v.346h-3.33v-.345c.18 0 .363.01.545-.002.541-.034.75-.198.753-.74.02-3.215.013-6.43.014-9.646 0-.026-.006-.051-.012-.097h-1.3v-.36h.209c.903 0 1.808.005 2.71-.004.166-.001.24.05.3.203a3255.48 3255.48 0 0 0 3.098 7.86c.022.057.05.114.09.21.19-.492.364-.945.54-1.396.864-2.231 1.729-4.462 2.589-6.694.052-.137.12-.184.27-.183.955.009 1.913.004 2.884.004v.35h-1.364zm8.459.357c-.698.006-1.394.001-2.114.001v-.352h1.17v-10.49h-1.165v-.36h.203c1.575 0 3.15-.017 4.725.007.915.014 1.777.254 2.505.844.687.558.933 1.277.808 2.152-.116.816-.478 1.466-1.23 1.822-.398.188-.848.268-1.274.396-.053.017-.108.027-.16.052.536.1 1.056.24 1.535.496.843.451 1.36 1.124 1.442 2.108.076.902-.152 1.69-.795 2.335-.563.564-1.267.895-2.047.938-1.198.064-2.402.041-3.603.051zm.82-.394c.582 0 1.152.04 1.718-.01.795-.068 1.387-.484 1.72-1.223.275-.616.349-1.263.273-1.934-.081-.716-.378-1.302-.986-1.706-.832-.553-1.774-.521-2.725-.508zm0-5.703c.695-.043 1.378-.041 2.047-.138.634-.092 1.13-.449 1.367-1.075.093-.242.138-.506.178-.767.14-.934-.174-1.691-.937-2.246-.8-.583-1.724-.541-2.655-.512zm-34.21-4.748h-1.491v-.34h4.87v.335H50.83c-.004.08-.01.137-.01.195 0 2.664-.013 5.33.006 7.994.007.943.346 1.746 1.217 2.236.356.2.746.294 1.153.31.719.024 1.425-.04 2.093-.336.904-.402 1.403-1.12 1.585-2.068.064-.33.083-.671.084-1.006.007-2.154.004-4.307 0-6.459 0-.13-.02-.264-.052-.39-.077-.297-.317-.464-.654-.469-.352-.003-.702 0-1.07 0v-.348h3.752v.346h-.8c-.505.001-.733.208-.735.72-.01 2.26.002 4.519-.017 6.778a4.696 4.696 0 0 1-.17 1.248c-.357 1.242-1.247 1.926-2.467 2.215-.795.19-1.604.145-2.41.09-.638-.045-1.256-.164-1.83-.455-.75-.384-1.174-1.014-1.314-1.83a6.183 6.183 0 0 1-.08-1.026c-.007-2.49-.004-4.982-.004-7.475zm-35.135-.345v.334H12.78l2.8 6.057.562-1.157c.615-1.265 1.232-2.53 1.841-3.799a2.73 2.73 0 0 0 .189-.556c.083-.354-.054-.52-.424-.53-.278-.008-.556-.002-.845-.002v-.346h3.273v.345c-.17 0-.334.007-.497 0-.408-.018-.711.161-.894.512-.402.769-.79 1.545-1.179 2.322a542.892 542.892 0 0 0-1.774 3.578c-.06.125-.093.276-.094.415-.009 1.142-.006 2.285-.006 3.428v.229h1.702v.35h-5.067v-.34h1.7v-.238c0-1.016-.005-2.033.005-3.049a1.465 1.465 0 0 0-.155-.683c-1.052-2.169-2.097-4.342-3.148-6.524H9.5v-.346zm87.975 10.837c.277-.01.555-.003.847-.003v.344h-4.116v-.343h1.201c-.13-.38-.252-.733-.372-1.088-.225-.662-.451-1.321-.67-1.985-.039-.12-.091-.163-.22-.163-1.077.005-2.154.001-3.23.008-.066 0-.173.05-.19.102-.281.824-.557 1.65-.815 2.482-.042.14-.053.354.025.45.09.113.29.163.449.186.208.03.422.007.646.007v.348h-2.724v-.348c.103 0 .2-.005.298.001.372.022.626-.147.759-.487.142-.36.276-.724.398-1.09 1.05-3.116 2.098-6.23 3.143-9.348.041-.124.08-.205.237-.198.147.008.254.007.316.183.678 1.954 1.364 3.905 2.05 5.856.575 1.642 1.153 3.282 1.724 4.925.047.136.116.165.244.16zm-6.605-3.602h3.322l-1.681-4.952c-.56 1.685-1.098 3.31-1.641 4.952zm-65.007 2.232l.485 1.37h1.008v.343h-4.116v-.334h1.224l-.58-1.705c-.155-.456-.312-.909-.459-1.367-.04-.122-.09-.177-.23-.176a321.18 321.18 0 0 1-3.25.002c-.098 0-.158.019-.19.123-.253.786-.511 1.57-.766 2.357a1.872 1.872 0 0 0-.068.267c-.05.301.115.469.491.484.225.01.45.002.687.002v.343H21.82v-.342c.11 0 .214-.005.318.001.354.02.605-.135.734-.458.158-.398.303-.802.44-1.209 1.04-3.09 2.08-6.179 3.113-9.27.05-.147.122-.192.27-.185.134.008.227.008.284.169 1.114 3.197 2.236 6.39 3.357 9.585zm-4.3-7.184l-1.642 4.953h3.324l-1.682-4.953zM36.78 50.54h-1.245v-.346h4.258v.34h-1.247v10.482c.06.005.117.011.175.011.612.001 1.225.03 1.833-.009.563-.035 1.13-.101 1.679-.225.839-.189 1.27-.793 1.406-1.608.083-.5.11-1.006.167-1.53h.304v3.717h-8.575v-.34h1.245z"/></g><g clip-path="url(#5832b)"><path d="M4.024 44.43H108.27v22.685H4.024z"/></g></g><g><g><path d="M104.54 80.415c-.696.006-1.393.002-2.113.002v-.353h1.17V69.586h-1.165v-.34h.204c1.575 0 3.15-.018 4.723.006.916.014 1.777.254 2.505.845.688.557.933 1.246.81 2.118-.116.819-.479 1.466-1.231 1.823-.4.187-.847.27-1.274.397-.053.016-.109.025-.161.052.538.1 1.057.239 1.535.496.845.451 1.36 1.123 1.443 2.107.076.903-.151 1.691-.795 2.335-.563.563-1.266.896-2.047.938-1.199.066-2.401.043-3.604.052zm.82-.395c.582 0 1.154.04 1.718-.009.795-.069 1.388-.486 1.72-1.224.277-.615.349-1.263.273-1.933-.08-.715-.378-1.304-.985-1.707-.832-.553-1.774-.52-2.725-.508zm0-5.703c.695-.043 1.378-.041 2.049-.138.633-.092 1.13-.45 1.367-1.074.092-.243.138-.508.177-.767.141-.936-.173-1.679-.937-2.235-.8-.582-1.723-.54-2.655-.512z"/></g><g clip-path="url(#5832c)"><path d="M96.95 63.763h19.526v22.131H96.95z"/></g></g><g><g><path d="M9.277 80.8h-.269l-.01-.03-1.758-5.323-1.925 5.352h-.267l-.011-.028L1.134 69.58H0v-.341h3.75v.34h-.82l2.954 8.595 1.152-3.227-1.862-5.367h-.96v-.341h6.512v.34h-.47c-.62 0-.975.131-1.205.838l-.927 2.543 1.722 5.212 2.672-7.517c.16-.462.187-.562.187-.678 0-.263-.22-.397-.65-.397h-.503v-.341h2.898v.34h-.186c-.817 0-1.088.347-1.332 1.03zm-2.37-11.22l.997 2.927.7-1.945c.092-.25.14-.463.14-.632 0-.121 0-.35-.588-.35z"/></g><g clip-path="url(#5832d)"><path d="M-5.476 63.763h25.403v22.512H-5.476z"/></g></g><g><g><path d="M22.162 80.42h-4.57v-.34h1.436v-10.5h-1.436v-.34h4.57v.34h-1.437v10.5h1.437z"/></g><g clip-path="url(#5832e)"><path d="M12.116 63.763h15.523v22.134H12.116z"/></g></g><g><g><path d="M35.494 80.516h-.272l-.013-.019-7.512-10.363v9.09c0 .732.233.857.934.857h.676v.34h-3.465v-.34h.58c.701 0 .934-.125.934-.856V69.58h-1.514v-.34h3.38l.014.018 5.917 8.154v-7.024c0-.616-.107-.808-.776-.808h-.787v-.34h3.419v.34h-.739c-.669 0-.776.192-.776.808z"/></g><g clip-path="url(#5832f)"><path d="M20.366 63.763h22.119v22.229h-22.12z"/></g></g><g><g><path d="M49.792 80.42h-9.289v-.34h1.389v-10.5h-1.389v-.34H49l.196 2.77h-.345v-.044c0-1.606-.925-2.386-2.828-2.386H43.59v4.977h1.139c1.62 0 1.754-.977 1.754-1.977v-.044h.342v4.287h-.342v-.045c0-1.136-.123-1.88-1.77-1.88H43.59v5.182h2.118c2.544 0 3.743-.29 3.743-2.939v-.043h.34z"/></g><g clip-path="url(#5832g)"><path d="M35.027 63.763h20.241v22.134H35.027z"/></g></g><g><g><path d="M66.437 80.673c-1.297 0-2.581-.621-3.527-1.706-.97-1.112-1.504-2.585-1.504-4.146 0-1.562.534-3.034 1.504-4.146.946-1.084 2.23-1.707 3.527-1.707 1.019 0 1.681.46 2.165.794.29.202.517.358.723.358.364 0 .54-.207.54-.634v-.044h.34v3.466h-.34v-.044c0-1.893-1.602-3.554-3.428-3.554-1.435 0-3.144.956-3.144 5.511s1.71 5.511 3.144 5.511c1.656 0 3.428-1.56 3.428-3.884v-.045h.34v3.829h-.34v-.044c0-.31-.153-.746-.493-.746-.15 0-.36.15-.624.34-.494.355-1.24.891-2.311.891"/></g><g clip-path="url(#5832h)"><path d="M55.93 63.492h19.752V86.15H55.929z"/></g></g><g><g><path d="M89.118 69.851c0 2.49-.003 4.984.004 7.475 0 .343.021.69.08 1.026.14.816.564 1.446 1.314 1.828.574.293 1.191.412 1.83.455.807.055 1.614.1 2.41-.088 1.22-.29 2.11-.974 2.466-2.216.115-.4.169-.83.172-1.247.017-2.26.008-4.519.015-6.778.002-.512.23-.719.737-.72h.8v-.347h-3.752v.348c.366 0 .718-.003 1.069.001.338.004.578.172.654.468.032.126.052.26.052.39.004 2.153.007 4.306 0 6.459-.001.336-.02.677-.084 1.005-.181.95-.682 1.667-1.585 2.069-.667.298-1.374.361-2.093.336a2.51 2.51 0 0 1-1.153-.31c-.871-.49-1.21-1.293-1.217-2.236-.019-2.665-.007-5.33-.006-7.993 0-.058.006-.116.01-.195h1.654v-.334h-4.87v.34h1.493z"/></g><g clip-path="url(#5832i)"><path d="M82.15 63.763h22.272v22.396H82.149z"/></g></g><g><g><path d="M76.79 80.08h-1.245v.338h8.575v-3.716h-.305c-.054.523-.083 1.03-.166 1.53-.137.815-.566 1.42-1.406 1.607-.55.124-1.117.191-1.678.226-.61.038-1.223.009-1.834.009-.057 0-.116-.008-.175-.01V69.581h1.246v-.342h-4.257v.346h1.244z"/></g><g clip-path="url(#5832j)"><path d="M70.069 63.764h19.527v22.13H70.069z"/></g></g><g><g><path d="M61.068.005v.82c.688 0 1.35-.013 2.01.004.886.024 1.21.42 1.01 1.266a6.466 6.466 0 0 1-.446 1.325 3683.557 3683.557 0 0 1-5.73 11.81L51.24.795h2.842V0H43.428v.825h3.02c2.458 5.097 4.899 10.171 7.355 15.237a3.53 3.53 0 0 1 .355 1.6c-.004.487-.012 2.994-.012 2.994-.004.385-.012 1.026.587 1.306.302.14 1.383.627 2.33 1.043-.282.124-1.824.776-2.217.95-.45.2-.707.532-.707.911 0 .17.062.595.638.852.463.205 2.135.943 2.365 1.046-.21.09-1.977.834-2.251.955-.595.264-.662.701-.663.878-.001.181.064.632.687.917.394.18 1.606.719 2.218.987-.534.254-1.745.843-2.157 1.046-.496.244-.543.628-.54.782.005.22.109.652.805.942.942.392 2.218.89 2.218.89-.624.412-1.113.665-1.355.803-.243.138-.456.458-.456.458s.352.044.59-.033c.237-.079.664-.229 1.432-.557.77-.329.74-1.248.024-1.628-.422-.226-1.794-.865-1.794-.865.59-.286 1.5-.728 1.835-.885.448-.211.722-.601.715-1.019-.005-.366-.228-.68-.593-.837-.322-.14-1.578-.695-2.218-.984.309-.132 1.884-.795 2.094-.886.454-.195.727-.556.73-.967.003-.389-.247-.741-.65-.923-.22-.099-1.86-.823-2.228-.985.31-.136 1.785-.758 2.104-.901.547-.246.823-.57.82-.965 0-.26-.134-.614-.732-.89-1.074-.495-1.42-.658-2.153-1.002.436-.185 1.54-.654 2.021-.862.607-.262.8-.555.8-1.097.003-.698.005-1.689.01-2.387.003-.315.076-.656.209-.944 1.348-2.748 2.71-5.489 4.08-8.228.925-1.85 1.85-3.702 2.808-5.535.437-.833 1.158-1.26 2.129-1.218.39.016.78.002 1.187.002v-.82z"/></g><g clip-path="url(#5832k)"><path d="M37.952-5.476h36.392V40.91H37.952z"/></g></g></g></g></svg>