<svg xmlns="http://www.w3.org/2000/svg" xmlns:xlink="http://www.w3.org/1999/xlink" width="16.682" height="19.029" viewBox="0 0 16.682 19.029">
  <defs>
    <clipPath id="clip-path">
      <rect width="16.682" height="19.029" fill="none"/>
    </clipPath>
  </defs>
  <g id="Cart-Icon" clip-path="url(#clip-path)">
    <g id="Path_252" data-name="Path 252" transform="translate(2 6.407)" fill="none">
      <path d="M-1,0H13.682a1,1,0,0,1,1,1l-2,10.622a1,1,0,0,1-1,1H1a1,1,0,0,1-1-1L-2,1A1,1,0,0,1-1,0Z" stroke="none"/>
      <path d="M 0.2234401702880859 2.000000953674316 L 1.846845626831055 10.62150001525879 L 10.83518600463867 10.62150001525879 L 12.45859146118164 2.000000953674316 L 1.630636215209961 2.000000953674316 L 0.2234401702880859 2.000000953674316 M -1.000003814697266 9.5367431640625e-07 L 1.630636215209961 9.5367431640625e-07 L 13.68203544616699 9.5367431640625e-07 C 14.23431587219238 9.5367431640625e-07 14.68203544616699 0.4477100372314453 14.68203544616699 1.000000953674316 L 12.68203544616699 11.62150001525879 C 12.68203544616699 12.17379093170166 12.23431587219238 12.62150001525879 11.68203544616699 12.62150001525879 L 0.9999961853027344 12.62150001525879 C 0.4477157592773438 12.62150001525879 -3.814697265625e-06 12.17379093170166 -3.814697265625e-06 11.62150001525879 L -2.000003814697266 1.000000953674316 C -2.000003814697266 0.4477100372314453 -1.552284240722656 9.5367431640625e-07 -1.000003814697266 9.5367431640625e-07 Z" stroke="none" fill="currentColor"/>
    </g>
    <path id="Path_68" data-name="Path 68" d="M1492.514,67.73V65.883c0-3.96,6.386-3.983,6.386,0V67.73" transform="translate(-1487.366 -60.904)" fill="none" stroke="currentColor" stroke-linecap="round" stroke-width="2"/>
  </g>
</svg>
